<?xml version="1.0" encoding="UTF-8"?>
<svg width="700pt" height="700pt" version="1.1" viewBox="0 0 700 700" xmlns="http://www.w3.org/2000/svg" xmlns:xlink="http://www.w3.org/1999/xlink">
  <path d="m350 78.398c-111.21 0-201.6 90.395-201.6 201.6s90.395 201.6 201.6 201.6 201.6-90.395 201.6-201.6-90.395-201.6-201.6-201.6zm0 22.402c99.102 0 179.2 80.098 179.2 179.2s-80.098 179.2-179.2 179.2-179.2-80.098-179.2-179.2 80.098-179.2 179.2-179.2zm-90.648 117.43c-4.1875 0.32422-7.8359 2.9648-9.457 6.8359-1.625 3.8711-0.94531 8.3242 1.7539 11.539l89.602 112c2.125 2.6562 5.3438 4.207 8.75 4.207s6.625-1.5508 8.75-4.207l89.602-112c3.8633-4.8359 3.082-11.887-1.75-15.75-4.8359-3.8672-11.887-3.0859-15.75 1.75l-80.852 101.15-80.852-101.15c-2.3086-3.0312-6-4.6797-9.7969-4.375z"/>
</svg>
