<svg width="150" height="90" viewBox="0 0 150 90" fill="none" xmlns="http://www.w3.org/2000/svg">
<path d="M42.2715 32.5771C42.2715 34.423 42.471 35.9197 42.8202 37.0172C43.2193 38.1148 43.7182 39.3121 44.4167 40.6092C44.6661 41.0083 44.7659 41.4074 44.7659 41.7566C44.7659 42.2555 44.4665 42.7544 43.818 43.2533L40.675 45.3486C40.226 45.6479 39.777 45.7976 39.3779 45.7976C38.879 45.7976 38.3802 45.5481 37.8813 45.0991C37.1828 44.3508 36.5842 43.5526 36.0853 42.7544C35.5864 41.9063 35.0875 40.9584 34.5388 39.811C30.6475 44.4007 25.7584 46.6956 19.8716 46.6956C15.6809 46.6956 12.3384 45.4982 9.89388 43.1036C7.44934 40.7089 6.20213 37.5161 6.20213 33.525C6.20213 29.2845 7.69879 25.8422 10.742 23.248C13.7852 20.6538 17.8261 19.3567 22.9646 19.3567C24.6608 19.3567 26.4069 19.5064 28.2528 19.7558C30.0987 20.0053 31.9944 20.4044 33.99 20.8534V17.2115C33.99 13.42 33.1918 10.7759 31.6452 9.22936C30.0488 7.68282 27.3548 6.93449 23.5134 6.93449C21.7673 6.93449 19.9713 7.13404 18.1255 7.58304C16.2796 8.03203 14.4836 8.58081 12.7375 9.27925C11.9393 9.62846 11.3406 9.82802 10.9914 9.92779C10.6422 10.0276 10.3928 10.0775 10.1932 10.0775C9.49477 10.0775 9.14555 9.57858 9.14555 8.53092V6.08639C9.14555 5.28817 9.24533 4.68951 9.49477 4.34029C9.74421 3.99107 10.1932 3.64185 10.8916 3.29264C12.6377 2.39464 14.7331 1.64632 17.1776 1.04766C19.6221 0.399107 22.2163 0.0997768 24.9602 0.0997768C30.8969 0.0997768 35.2372 1.44676 38.0309 4.14074C40.7748 6.83471 42.1717 10.9256 42.1717 16.4133V32.5771H42.2715ZM22.0168 40.1602C23.6631 40.1602 25.3593 39.8608 27.1553 39.2622C28.9512 38.6635 30.5477 37.566 31.8947 36.0693C32.6929 35.1214 33.2915 34.0738 33.5909 32.8765C33.8902 31.6791 34.0898 30.2324 34.0898 28.5362V26.4409C32.643 26.0916 31.0965 25.7923 29.5 25.5928C27.9036 25.3932 26.3571 25.2934 24.8105 25.2934C21.468 25.2934 19.0235 25.942 17.3771 27.289C15.7308 28.636 14.9326 30.5317 14.9326 33.0261C14.9326 35.3709 15.5313 37.117 16.7785 38.3143C17.9758 39.5615 19.7219 40.1602 22.0168 40.1602ZM62.0772 45.5481C61.1792 45.5481 60.5805 45.3985 60.1814 45.0492C59.7823 44.7499 59.4331 44.0515 59.1337 43.1036L47.41 4.53985C47.1106 3.54208 46.961 2.89353 46.961 2.54431C46.961 1.74609 47.3601 1.2971 48.1583 1.2971H53.0474C53.9952 1.2971 54.6438 1.44676 54.993 1.79598C55.3921 2.09531 55.6914 2.79375 55.9908 3.74163L64.372 36.7678L72.1546 3.74163C72.4041 2.74386 72.7034 2.09531 73.1025 1.79598C73.5016 1.49665 74.2 1.2971 75.098 1.2971H79.0891C80.037 1.2971 80.6855 1.44676 81.0846 1.79598C81.4837 2.09531 81.833 2.79375 82.0325 3.74163L89.9149 37.1669L98.5456 3.74163C98.8449 2.74386 99.1941 2.09531 99.5434 1.79598C99.9425 1.49665 100.591 1.2971 101.489 1.2971H106.129C106.927 1.2971 107.376 1.69621 107.376 2.54431C107.376 2.79375 107.326 3.04319 107.276 3.34252C107.226 3.64185 107.126 4.04096 106.927 4.58973L94.9037 43.1535C94.6044 44.1512 94.2552 44.7998 93.8561 45.0991C93.457 45.3985 92.8084 45.598 91.9603 45.598H87.6699C86.722 45.598 86.0735 45.4483 85.6744 45.0991C85.2753 44.7499 84.926 44.1014 84.7265 43.1036L76.9938 10.9256L69.311 43.0537C69.0615 44.0515 68.7622 44.7 68.3631 45.0492C67.964 45.3985 67.2656 45.5481 66.3676 45.5481H62.0772ZM126.184 46.8951C123.59 46.8951 120.995 46.5958 118.501 45.9971C116.007 45.3985 114.061 44.7499 112.764 44.0016C111.966 43.5526 111.417 43.0537 111.217 42.6047C111.018 42.1557 110.918 41.6568 110.918 41.2078V38.6635C110.918 37.6159 111.317 37.117 112.065 37.117C112.365 37.117 112.664 37.1669 112.963 37.2666C113.263 37.3664 113.712 37.566 114.211 37.7655C115.907 38.5139 117.753 39.1125 119.698 39.5116C121.694 39.9107 123.639 40.1103 125.635 40.1103C128.778 40.1103 131.222 39.5615 132.919 38.464C134.615 37.3664 135.513 35.77 135.513 33.7246C135.513 32.3277 135.064 31.1803 134.166 30.2324C133.268 29.2845 131.572 28.4364 129.127 27.6382L121.893 25.3932C118.252 24.2458 115.558 22.5496 113.911 20.3046C112.265 18.1095 111.417 15.665 111.417 13.0708C111.417 10.9755 111.866 9.12958 112.764 7.53315C113.662 5.93672 114.859 4.53985 116.356 3.4423C117.852 2.29487 119.549 1.44676 121.544 0.848103C123.54 0.249442 125.635 0 127.83 0C128.928 0 130.075 0.0498884 131.173 0.199554C132.32 0.349219 133.368 0.548773 134.415 0.748326C135.413 0.997768 136.361 1.24721 137.259 1.54654C138.157 1.84587 138.855 2.1452 139.354 2.44453C140.053 2.84364 140.552 3.24275 140.851 3.69174C141.15 4.09085 141.3 4.63962 141.3 5.33806V7.68282C141.3 8.73047 140.901 9.27925 140.153 9.27925C139.753 9.27925 139.105 9.07969 138.257 8.68058C135.413 7.38349 132.22 6.73494 128.678 6.73494C125.835 6.73494 123.59 7.18393 122.043 8.13181C120.496 9.07969 119.698 10.5265 119.698 12.5719C119.698 13.9688 120.197 15.1661 121.195 16.114C122.193 17.0618 124.039 18.0097 126.683 18.8578L133.767 21.1028C137.359 22.2502 139.953 23.8467 141.5 25.8921C143.046 27.9375 143.794 30.2823 143.794 32.8765C143.794 35.0217 143.345 36.9673 142.497 38.6635C141.599 40.3597 140.402 41.8564 138.855 43.0537C137.309 44.3009 135.463 45.1989 133.318 45.8475C131.073 46.5459 128.728 46.8951 126.184 46.8951Z" fill="#68B8D7"/>
<path fill-rule="evenodd" clip-rule="evenodd" d="M135.613 71.1413C119.199 83.2641 95.3527 89.6997 74.8486 89.6997C46.1129 89.6997 20.2208 79.0735 0.664522 61.413C-0.882019 60.0161 0.514857 58.1204 2.36073 59.2179C23.5134 71.4905 49.6051 78.9239 76.5947 78.9239C94.804 78.9239 114.809 75.1323 133.218 67.3497C135.962 66.1025 138.307 69.1457 135.613 71.1413Z" fill="#68B8D7"/>
<path fill-rule="evenodd" clip-rule="evenodd" d="M142.447 63.3581C140.352 60.6642 128.578 62.061 123.24 62.7096C121.644 62.9091 121.395 61.5123 122.841 60.4646C132.22 53.8793 147.636 55.7751 149.432 57.9702C151.228 60.2152 148.933 75.6307 140.153 83.0142C138.806 84.1616 137.508 83.563 138.107 82.0663C140.103 77.1273 144.543 66.0022 142.447 63.3581Z" fill="#68B8D7"/>
</svg>
