<svg width="150" height="150" viewBox="0 0 150 150" fill="none" xmlns="http://www.w3.org/2000/svg">
<path d="M73.425 33.9749C49.2 34.7448 42 52.0499 40.35 61.4249C42.4999 57.9498 49.275 50.325 59.25 50.325C70.875 50.325 79.725 63.3 85.125 67.35C91.6855 72.2705 104.868 78.7673 122.175 73.5C135.975 69.3 142.375 54.6498 143.775 47.6999C137.1 56.7749 126.975 62.2257 114.45 55.7999C105.825 51.3749 99.375 33.15 73.425 33.9749Z" fill="#68B8D7"/>
<path d="M39.15 75.1497C14.925 75.9196 7.72501 93.2247 6.07501 102.6C8.22501 99.1246 15 91.4998 24.975 91.4998C36.6 91.4998 45.45 104.475 50.85 108.525C57.4106 113.445 70.5935 119.942 87.9 114.675C101.7 110.475 108.1 95.8246 109.5 88.8747C102.825 97.9497 92.7 103.401 80.175 96.9747C71.55 92.5497 65.1 74.3248 39.15 75.1497Z" fill="#68B8D7"/>
</svg>
