<svg width="150" height="147" viewBox="0 0 150 147" fill="none" xmlns="http://www.w3.org/2000/svg">
<g clip-path="url(#clip0_202_23)">
<path d="M66.581 0.52157C32.011 4.2893 4.20463 32.1705 0.447017 66.0801C-3.31059 101.497 16.9805 133.146 47.7929 145.203C50.0475 145.956 52.3021 144.449 52.3021 141.435V129.378C52.3021 129.378 49.296 130.132 45.5384 130.132C35.0171 130.132 30.5079 121.089 29.7564 115.814C29.0049 112.8 27.5018 110.539 25.2473 108.279C22.9927 107.525 22.2412 107.525 22.2412 106.772C22.2412 105.265 24.4957 105.265 25.2473 105.265C29.7564 105.265 33.514 110.539 35.0171 112.8C38.7747 118.828 43.2838 120.335 45.5384 120.335C48.5445 120.335 50.799 119.582 52.3021 118.828C53.0536 113.554 55.3082 108.279 59.8173 105.265C42.5323 101.497 29.7564 91.7007 29.7564 75.1227C29.7564 66.8337 33.514 58.5447 38.7747 52.5163C38.0231 51.0092 37.2716 47.2415 37.2716 41.9666C37.2716 38.9525 37.2716 34.4312 39.5262 29.9099C39.5262 29.9099 50.0475 29.9099 60.5688 39.706C64.3264 38.1989 69.5871 37.4454 74.8477 37.4454C80.1084 37.4454 85.3691 38.1989 89.8782 39.706C99.648 29.9099 110.921 29.9099 110.921 29.9099C112.424 34.4312 112.424 38.9525 112.424 41.9666C112.424 47.995 111.672 51.0092 110.921 52.5163C116.181 58.5447 119.939 66.0801 119.939 75.1227C119.939 91.7007 107.163 101.497 89.8782 105.265C94.3873 109.032 97.3934 115.814 97.3934 122.596V142.188C97.3934 144.449 99.648 146.71 102.654 145.956C130.46 134.653 150 107.525 150 75.8762C150 30.6634 111.672 -4.75326 66.581 0.52157Z" fill="#183550"/>
</g>
<defs>
<clipPath id="clip0_202_23">
<rect width="150" height="147" fill="white"/>
</clipPath>
</defs>
</svg>
