<svg width="134" height="150" viewBox="0 0 134 150" fill="none" xmlns="http://www.w3.org/2000/svg">
<path d="M6.64662 111.143L12.1531 114.323L73.4976 8.07406L67.9911 4.89479L6.64662 111.143Z" fill="#68B8D7"/>
<path d="M128.075 102.656H5.38562V109.014H128.075V102.656Z" fill="#68B8D7"/>
<path d="M7.81332 106.228L69.1808 141.66L72.3601 136.153L10.9926 100.722L7.81332 106.228Z" fill="#68B8D7"/>
<path d="M61.1233 13.8843L122.491 49.3159L125.67 43.8094L64.3025 8.37785L61.1233 13.8843Z" fill="#68B8D7"/>
<path d="M7.83033 43.7855L11.0096 49.292L72.3771 13.8604L69.1978 8.35392L7.83033 43.7855Z" fill="#68B8D7"/>
<path d="M60.0148 8.07552L121.359 114.324L126.866 111.145L65.5213 4.89626L60.0148 8.07552Z" fill="#68B8D7"/>
<path d="M16.6088 39.5684H10.2503V110.432H16.6088V39.5684Z" fill="#68B8D7"/>
<path d="M123.248 39.5684H116.89V110.432H123.248V39.5684Z" fill="#68B8D7"/>
<path d="M65.3213 134.158L68.0983 138.968L121.471 108.152L118.694 103.342L65.3213 134.158Z" fill="#68B8D7"/>
<path d="M131.675 112.5C127.998 118.897 119.801 121.08 113.404 117.403C107.007 113.726 104.824 105.529 108.501 99.1318C112.178 92.735 120.375 90.5516 126.772 94.2289C133.207 97.9444 135.391 106.103 131.675 112.5Z" fill="#68B8D7"/>
<path d="M24.9592 50.8682C21.282 57.2651 13.0848 59.4484 6.68798 55.7712C0.291139 52.094 -1.89221 43.8968 1.78501 37.5C5.46223 31.1031 13.6594 28.9198 20.0562 32.597C26.4531 36.3126 28.6364 44.4714 24.9592 50.8682Z" fill="#68B8D7"/>
<path d="M1.82331 112.5C-1.85391 106.103 0.329438 97.9444 6.72627 94.2289C13.1231 90.5516 21.2819 92.735 24.9975 99.1318C28.6747 105.529 26.4914 113.688 20.0945 117.403C13.6594 121.08 5.50053 118.897 1.82331 112.5Z" fill="#68B8D7"/>
<path d="M108.539 50.8682C104.862 44.4714 107.046 36.3126 113.442 32.597C119.839 28.9198 127.998 31.1031 131.714 37.5C135.391 43.8968 133.207 52.0557 126.811 55.7712C120.414 59.4484 112.217 57.2651 108.539 50.8682Z" fill="#68B8D7"/>
<path d="M66.7493 150C59.3565 150 53.3811 144.025 53.3811 136.632C53.3811 129.239 59.3565 123.264 66.7493 123.264C74.142 123.264 80.1175 129.239 80.1175 136.632C80.1175 143.986 74.142 150 66.7493 150Z" fill="#68B8D7"/>
<path d="M66.7493 26.7365C59.3565 26.7365 53.3811 20.761 53.3811 13.3682C53.3811 5.97549 59.3565 0 66.7493 0C74.142 0 80.1175 5.97549 80.1175 13.3682C80.1175 20.761 74.142 26.7365 66.7493 26.7365Z" fill="#68B8D7"/>
</svg>
