<svg width="134" height="150" viewBox="0 0 134 150" fill="none" xmlns="http://www.w3.org/2000/svg">
<g clip-path="url(#clip0_202_25)">
<path d="M6.64648 111.143L12.153 114.323L73.4975 8.07405L67.991 4.89478L6.64648 111.143Z" fill="#183550"/>
<path d="M128.075 102.656H5.38574V109.014H128.075V102.656Z" fill="#183550"/>
<path d="M7.81348 106.228L69.181 141.66L72.3603 136.153L10.9928 100.722L7.81348 106.228Z" fill="#183550"/>
<path d="M61.1235 13.8844L122.491 49.316L125.67 43.8095L64.3027 8.37793L61.1235 13.8844Z" fill="#183550"/>
<path d="M7.83057 43.7856L11.0098 49.2921L72.3773 13.8605L69.198 8.354L7.83057 43.7856Z" fill="#183550"/>
<path d="M60.0146 8.0755L121.359 114.324L126.866 111.145L65.5211 4.89624L60.0146 8.0755Z" fill="#183550"/>
<path d="M16.609 39.5684H10.2505V110.432H16.609V39.5684Z" fill="#183550"/>
<path d="M123.248 39.5684H116.89V110.432H123.248V39.5684Z" fill="#183550"/>
<path d="M65.3213 134.158L68.0983 138.968L121.471 108.152L118.694 103.342L65.3213 134.158Z" fill="#183550"/>
<path d="M131.675 112.5C127.998 118.897 119.801 121.08 113.404 117.403C107.007 113.726 104.824 105.529 108.501 99.1318C112.178 92.735 120.375 90.5516 126.772 94.2289C133.207 97.9444 135.391 106.103 131.675 112.5Z" fill="#183550"/>
<path d="M24.9592 50.8682C21.282 57.2651 13.0848 59.4484 6.68798 55.7712C0.291138 52.094 -1.89221 43.8968 1.78501 37.5C5.46223 31.1031 13.6594 28.9198 20.0562 32.597C26.4531 36.3126 28.6364 44.4714 24.9592 50.8682Z" fill="#183550"/>
<path d="M1.8231 112.5C-1.85412 106.103 0.329224 97.9444 6.72606 94.2289C13.1229 90.5516 21.2817 92.735 24.9973 99.1318C28.6745 105.529 26.4912 113.688 20.0943 117.403C13.6592 121.08 5.50032 118.897 1.8231 112.5Z" fill="#183550"/>
<path d="M108.539 50.8682C104.862 44.4714 107.046 36.3126 113.442 32.597C119.839 28.9198 127.998 31.1031 131.714 37.5C135.391 43.8968 133.207 52.0557 126.811 55.7712C120.414 59.4484 112.217 57.2651 108.539 50.8682Z" fill="#183550"/>
<path d="M66.7491 150C59.3563 150 53.3809 144.025 53.3809 136.632C53.3809 129.239 59.3563 123.264 66.7491 123.264C74.1418 123.264 80.1173 129.239 80.1173 136.632C80.1173 143.986 74.1418 150 66.7491 150Z" fill="#183550"/>
<path d="M66.7491 26.7365C59.3563 26.7365 53.3809 20.761 53.3809 13.3682C53.3809 5.97549 59.3563 0 66.7491 0C74.1418 0 80.1173 5.97549 80.1173 13.3682C80.1173 20.761 74.1418 26.7365 66.7491 26.7365Z" fill="#183550"/>
</g>
<defs>
<clipPath id="clip0_202_25">
<rect width="134" height="150" fill="white"/>
</clipPath>
</defs>
</svg>
