<svg width="150" height="150" viewBox="0 0 150 150" fill="none" xmlns="http://www.w3.org/2000/svg">
<path d="M150 0H0V150H150V0Z" fill="#68B8D7"/>
<path d="M100.762 117.188C103.783 122.121 107.714 125.747 114.667 125.747C120.507 125.747 124.238 122.828 124.238 118.795C124.238 113.962 120.405 112.25 113.976 109.438L110.452 107.926C100.281 103.593 93.5238 98.1641 93.5238 86.6879C93.5238 76.1165 101.579 68.0688 114.167 68.0688C123.129 68.0688 129.571 71.1879 134.214 79.3546L123.238 86.4022C120.821 82.0688 118.214 80.3617 114.167 80.3617C110.038 80.3617 107.421 82.9808 107.421 86.4022C107.421 90.6308 110.04 92.3427 116.088 94.9617L119.612 96.4712C131.588 101.607 138.35 106.843 138.35 118.614C138.35 131.305 128.381 138.257 114.993 138.257C101.902 138.257 93.4452 132.019 89.3071 123.843L100.762 117.188ZM50.9691 118.409C53.1833 122.338 55.1976 125.659 60.0405 125.659C64.6714 125.659 67.5929 123.847 67.5929 116.802V68.8736H81.6881V116.993C81.6881 131.588 73.131 138.231 60.6405 138.231C49.3548 138.231 42.819 132.39 39.4952 125.356L50.9691 118.409Z" fill="#252F3E"/>
</svg>
