<svg width="124" height="146" viewBox="0 0 124 146" fill="none" xmlns="http://www.w3.org/2000/svg">
<path d="M59.5 35.4808C59.5 35.9615 59.0192 35.9615 59.0192 35.9615H58.5385C58.0577 35.9615 58.0577 35.4808 57.5769 35C57.5769 35 57.0962 34.5192 57.0962 34.0385C57.0962 33.5577 57.0962 33.5577 57.5769 33.5577L58.5385 34.0385C59.0192 34.5192 59.5 35 59.5 35.4808ZM50.8462 30.6731C50.8462 28.2692 49.8846 26.8269 48.4423 26.8269C48.4423 26.8269 48.4423 27.3077 47.9615 27.3077V28.2692H49.4039C49.4039 29.2308 49.8846 29.7115 49.8846 30.6731H50.8462ZM67.6731 28.2692C68.6346 28.2692 69.1154 29.2308 69.5962 30.6731H70.5577C70.0769 30.1923 70.0769 29.7115 70.0769 29.2308C70.0769 28.75 70.0769 28.2692 69.5962 27.7885C69.1154 27.3077 68.6346 26.8269 68.1538 26.8269C68.1538 26.8269 67.6731 27.3077 67.1923 27.3077C67.1923 27.7885 67.6731 27.7885 67.6731 28.2692ZM53.25 35.9615C52.7692 35.9615 52.7692 35.9615 52.7692 35.4808C52.7692 35 52.7692 34.5192 53.25 34.0385C54.2115 34.0385 54.6923 33.5577 54.6923 33.5577C55.1731 33.5577 55.1731 34.0385 55.1731 34.0385C55.1731 34.5192 54.6923 35 53.7308 35.9615H53.25ZM47.9615 35.4808C46.0385 34.5192 45.5577 33.0769 45.5577 30.6731C45.5577 29.2308 45.5577 28.2692 46.5192 27.3077C47 26.3461 47.9615 25.8654 48.9231 25.8654C49.8846 25.8654 50.3654 26.3461 51.3269 27.3077C51.8077 28.75 52.2885 30.1923 52.2885 31.6346V32.1154V32.5961H52.7692V32.1154C53.25 32.1154 53.25 31.1538 53.25 29.2308C53.25 27.7885 53.25 26.3461 52.2885 24.9038C51.3269 23.4615 50.3654 22.5 48.4423 22.5C47 22.5 45.5577 23.4615 45.0769 24.9038C44.1154 26.8269 43.9231 28.2692 43.9231 30.6731C43.9231 32.5961 44.5962 34.5192 46.5192 36.4423C47 35.9615 47.4808 35.9615 47.9615 35.4808ZM108.058 103.269C108.538 103.269 108.538 103.077 108.538 102.644C108.538 101.587 108.058 100.337 106.615 98.9423C105.173 97.5 102.769 96.5865 99.8846 96.2019C99.4038 96.1538 98.9231 96.1538 98.9231 96.1538C98.4423 96.0577 98.4423 96.0577 97.9615 96.0577C97.4808 96.0096 96.5192 95.9135 96.0385 95.8173C97.4808 91.3461 97.9615 87.4038 97.9615 83.9423C97.9615 79.1346 97 75.7692 95.0769 72.8846C93.1538 70 91.2308 68.5577 88.8269 68.0769C88.3462 68.5577 88.3462 68.5577 88.3462 69.0385C90.75 70 93.1538 71.9231 94.5962 74.8077C96.0385 78.1731 96.5192 81.0577 96.5192 84.4231C96.5192 87.1154 96.0385 91.1058 94.1154 96.2019C92.1923 96.9711 90.2692 98.75 88.8269 101.538C88.8269 101.971 88.8269 102.212 89.3077 102.212C89.3077 102.212 89.7885 101.779 90.2692 100.962C91.2308 100.144 91.7115 99.3269 92.6731 98.5096C94.1154 97.6923 95.0769 97.2596 96.5192 97.2596C98.9231 97.2596 101.327 97.5961 102.769 98.2692C104.692 98.8942 105.654 99.5673 106.135 100.337C106.615 101.058 107.096 101.731 107.577 102.356C107.577 102.981 108.058 103.269 108.058 103.269ZM63.8269 33.5577C63.3462 33.0769 63.3462 32.1154 63.3462 31.1538C63.3462 29.2308 63.3462 28.2692 64.3077 26.8269C65.2692 25.8654 66.2308 25.3846 67.1923 25.3846C68.6346 25.3846 69.5962 26.3461 70.5577 27.3077C71.0385 28.75 71.5192 29.7115 71.5192 31.1538C71.5192 33.5577 70.5577 35 68.6346 35.4808C68.6346 35.4808 69.1154 35.9615 69.5962 35.9615C70.5577 35.9615 71.0385 36.4423 72 36.9231C72.4808 34.0385 72.9615 32.1154 72.9615 29.7115C72.9615 26.8269 72.4808 24.9038 71.5192 23.4615C70.0769 22.0192 68.6346 21.5385 66.7115 21.5385C65.2692 21.5385 63.8269 22.0192 62.3846 22.9808C61.4231 24.4231 60.9423 25.3846 60.9423 26.8269C60.9423 29.2308 61.4231 31.1538 62.3846 33.0769C62.8654 33.0769 63.3462 33.5577 63.8269 33.5577ZM69.5962 41.25C63.3462 45.5769 58.5385 47.5 54.6923 47.5C51.3269 47.5 47.9615 46.0577 45.0769 43.6538C45.5577 44.6154 46.0385 45.5769 46.5192 46.0577L49.4039 48.9423C51.3269 50.8654 53.7308 51.8269 56.1346 51.8269C59.5 51.8269 63.3462 49.9038 68.1538 46.5385L72.4808 43.6538C73.4423 42.6923 74.4038 41.7308 74.4038 40.2885C74.4038 39.8077 74.4038 39.3269 73.9231 39.3269C73.4423 38.3654 71.0385 36.9231 66.2308 35.4808C61.9038 33.5577 58.5385 32.5961 56.6154 32.5961C55.1731 32.5961 52.7692 33.5577 49.4039 35.4808C46.5192 37.4038 44.5962 39.3269 44.5962 41.25C44.5962 41.25 45.0769 41.7308 45.5577 42.6923C48.4423 45.0961 51.3269 46.5385 54.2115 46.5385C58.0577 46.5385 62.8654 44.6154 69.1154 39.8077V40.7692C69.5962 40.7692 69.5962 41.25 69.5962 41.25ZM80.6538 138.365C82.5769 141.981 85.9423 143.798 89.7885 143.798C90.75 143.798 91.7115 143.654 92.6731 143.365C93.6346 143.173 94.5962 142.837 95.0769 142.452C95.5577 142.115 96.0385 141.779 96.5192 141.394C97.4808 141.058 97.4808 140.817 97.9615 140.577L106.135 133.51C108.058 131.976 109.981 130.635 112.385 129.471C114.308 128.317 116.231 127.548 117.192 127.115C118.635 126.731 119.596 126.154 120.558 125.385C121.038 124.663 121.519 123.75 121.519 122.596C121.519 121.202 120.558 120.144 119.596 119.375C118.635 118.606 117.673 118.077 116.712 117.74C115.75 117.404 114.788 116.635 113.346 115.337C112.385 114.087 111.423 112.356 110.942 110.096L110.462 107.308C109.981 106.01 109.981 105.048 109.5 104.519C109.5 104.375 109.5 104.327 109.019 104.327C108.538 104.327 107.577 104.76 107.096 105.577C106.135 106.394 105.173 107.308 104.212 108.269C103.731 109.231 102.288 110.096 101.327 110.913C99.8846 111.731 98.4423 112.163 97.4808 112.163C93.6346 112.163 91.7115 111.106 90.2692 109.038C89.3077 107.5 88.8269 105.721 88.3462 103.702C87.3846 102.885 86.9038 102.452 85.9423 102.452C83.5385 102.452 82.5769 104.952 82.5769 110V111.587V117.163V121.442V123.51V124.952C82.5769 125.385 82.0962 126.346 82.0962 127.837C81.6154 129.327 81.6154 131.019 81.6154 132.933L80.6538 138.269V138.351V138.365ZM10.9423 135.808C15.4135 136.462 20.5577 137.861 26.375 139.995C32.1923 142.111 35.75 143.216 37.0481 143.216C40.4135 143.216 43.2019 141.726 45.5096 138.846C45.9904 137.913 45.9904 136.817 45.9904 135.558C45.9904 131.014 43.25 125.269 37.7692 118.298L34.5 113.923C33.8269 113.01 33.0096 111.615 31.9519 109.74C30.9423 107.865 30.0288 106.423 29.3077 105.413C28.6827 104.308 27.6731 103.202 26.375 102.096C25.125 100.99 23.6827 100.269 22.0962 99.8846C20.0769 100.269 18.6827 100.942 18.0096 101.856C17.3365 102.769 16.9519 103.779 16.8558 104.837C16.7115 105.846 16.4231 106.519 15.9423 106.856C15.4615 107.144 14.6442 107.385 13.5385 107.625C13.2981 107.625 12.8654 107.625 12.2404 107.673H10.9423C8.39423 107.673 6.66346 107.962 5.75 108.442C4.54808 109.837 3.92308 111.423 3.92308 113.106C3.92308 113.875 4.11539 115.173 4.5 117C4.88462 118.779 5.07692 120.221 5.07692 121.231C5.07692 123.202 4.5 125.173 3.29808 127.144C2.09615 129.212 1.47115 130.75 1.47115 131.846C1.95192 133.712 5.125 135.024 10.9423 135.793V135.808ZM26.9519 92.0913C26.9519 88.774 27.8173 85.1202 29.5962 80.7933C31.3269 76.4663 33.0577 73.5817 34.7404 71.6586C34.6442 71.1779 34.4038 71.1779 34.0192 71.1779L33.5385 70.6971C32.1442 72.1394 30.4615 75.5048 28.4423 80.3125C26.4231 84.6394 25.3654 88.6298 25.3654 91.5625C25.3654 93.726 25.8942 95.601 26.8558 97.2356C27.9135 98.8221 30.4615 101.13 34.5 104.062L39.5962 107.38C45.0288 112.091 47.9135 115.361 47.9135 117.284C47.9135 118.293 47.4327 119.303 45.9904 120.409C45.0289 121.562 43.7308 122.139 42.625 122.139C42.5289 122.139 42.4808 122.236 42.4808 122.476C42.4808 122.524 42.9615 123.486 43.9712 125.361C45.9904 128.101 50.3173 129.447 56.0865 129.447C66.6635 129.447 74.8365 125.12 81.0865 116.466C81.0865 114.062 81.0865 112.572 80.6058 111.947V110.168C80.6058 107.043 81.0865 104.687 82.0481 103.149C83.0096 101.611 83.9712 100.889 85.4135 100.889C86.375 100.889 87.3365 101.226 88.2981 101.947C88.7788 98.2452 88.7788 95.024 88.7788 92.1394C88.7788 87.7644 88.7788 84.1586 87.8173 80.7933C87.3365 77.9086 86.375 75.5048 85.4135 73.5817C84.4519 72.1394 83.4904 70.6971 82.5288 69.2548C81.5673 67.8125 81.0865 66.3702 80.125 64.9279C79.6442 63.0048 79.1635 61.5625 79.1635 59.1586C77.7212 56.7548 76.7596 54.351 75.3173 51.9471C74.3558 49.5433 73.3942 47.1394 72.4327 45.2163L68.1058 48.5817C63.2981 51.9471 59.4519 53.3894 56.0865 53.3894C53.2019 53.3894 50.7981 52.9086 49.3558 50.9856L46.4712 48.5817C46.4712 50.024 45.9904 51.9471 45.0289 53.8702L42 59.6394C40.6538 63.0048 39.9327 64.9279 39.7885 66.3702C39.5962 67.3317 39.4519 68.2933 39.3558 68.2933L35.75 75.5048C31.8558 82.7163 29.8846 89.399 29.8846 94.9279C29.8846 96.0336 29.9808 97.1875 30.1731 98.3413C28.0096 96.851 26.9519 94.7836 26.9519 92.0913ZM61.375 137.572C55.125 137.572 50.3173 138.418 46.9519 140.096V139.952C44.5481 142.837 41.8558 144.327 38.1058 144.327C35.75 144.327 32.0481 143.413 27.0481 141.587C22 139.856 17.5288 138.529 13.6346 137.654C13.25 137.543 12.3846 137.38 10.9904 137.159C9.64423 136.942 8.39423 136.721 7.28846 136.5C6.27885 136.284 5.125 135.957 3.875 135.514C2.67308 135.135 1.71154 134.639 0.990385 134.038C0.326923 133.433 0 132.75 0 131.986C0 131.216 0.163462 130.394 0.490385 129.519C0.798077 128.99 1.13462 128.462 1.47115 127.981C1.80769 127.452 2.09615 126.971 2.28846 126.49C2.57692 126.058 2.76923 125.625 2.96154 125.144C3.15385 124.712 3.34615 124.279 3.44231 123.75C3.53846 123.269 3.63462 122.788 3.63462 122.308C3.63462 121.827 3.44231 120.385 3.05769 117.837C2.67308 115.337 2.48077 113.75 2.48077 113.077C2.48077 110.962 2.96154 109.279 4.01923 108.077C5.07692 106.875 6.08654 106.25 7.14423 106.25H12.6731C13.1058 106.25 13.7788 106.01 14.7885 105.433C15.125 104.663 15.4135 104.038 15.6058 103.462C15.8462 102.885 15.9423 102.452 16.0385 102.26C16.1346 101.971 16.2308 101.683 16.3269 101.442C16.5192 101.106 16.7596 100.721 17.0962 100.337C16.7115 99.8558 16.5192 99.2308 16.5192 98.4615C16.5192 97.9327 16.5192 97.4519 16.6154 97.1635C16.6154 95.4327 17.4327 92.9808 19.1635 89.7596L20.8462 86.7308C22.2404 84.1346 23.2981 82.2115 24.0673 80.2885C24.8846 78.3654 25.75 75.4808 26.7115 71.6346C27.4808 68.2692 29.3077 64.9038 32.1923 61.5385L35.7981 57.2115C38.2981 54.3269 39.9327 51.9231 40.8462 50C41.7596 48.0769 42.2404 45.6731 42.2404 43.75C42.2404 42.7885 42 39.9038 41.4712 35.0961C40.9904 30.2885 40.75 25.4808 40.75 21.1538C40.75 17.7885 41.0385 15.3846 41.6635 12.9808C42.2885 10.5769 43.3942 8.17308 45.0289 6.25C46.4712 4.32692 48.3942 2.40385 51.2789 1.44231C54.1635 0.480769 57.5288 0 61.375 0C62.8173 0 64.2596 0 65.7019 0.480769C67.1442 0.480769 69.0673 0.961538 71.4712 1.92308C73.3942 2.88462 75.3173 3.84615 76.7596 5.28846C78.6827 6.73077 80.125 9.13461 81.5673 11.5385C82.5288 14.4231 83.4904 17.3077 83.9712 21.1538C84.4519 23.5577 84.4519 25.9615 84.9327 29.3269C84.9327 32.2115 85.4135 34.1346 85.4135 35.5769C85.8942 37.0192 85.8942 38.9423 86.375 41.3461C86.8558 43.2692 87.3365 45.1923 88.2981 46.6346C89.2596 48.5577 90.2212 50.4808 91.6635 52.4038C93.1058 54.8077 95.0288 57.2115 96.9519 60.0961C101.279 64.9038 104.644 70.1923 106.567 75.4808C108.971 80.2885 110.413 86.5385 110.413 93.2211C110.413 96.5385 109.933 99.7596 108.971 102.885C109.933 102.885 110.413 103.269 110.894 103.942C111.375 104.615 111.856 106.058 112.337 108.317L112.817 111.875C113.298 112.933 113.779 113.942 115.221 114.808C116.183 115.673 117.144 116.394 118.587 116.971C119.548 117.452 120.99 118.125 121.952 118.99C122.913 119.952 123.394 120.962 123.394 122.019C123.394 123.654 122.913 124.856 121.952 125.721C120.99 126.683 120.029 127.356 118.587 127.788C117.625 128.269 115.702 129.231 112.817 130.587C110.413 132.01 108.01 133.736 105.606 135.779L100.798 139.87C98.875 141.745 96.9519 143.091 95.5096 143.909C94.0673 144.774 92.1442 145.207 90.2212 145.207L86.8558 144.822C83.0096 143.812 80.6058 141.889 79.1635 138.957C71.4712 138.024 65.2212 137.562 61.375 137.562" fill="#68B8D7"/>
</svg>
