<svg width="68" height="150" viewBox="0 0 68 150" fill="none" xmlns="http://www.w3.org/2000/svg">
<g clip-path="url(#clip0_202_55)">
<path d="M66.1834 59.6935C58.2746 24.8323 41.7907 15.5518 37.5858 8.99145C35.8518 6.10145 34.3158 3.09743 32.9882 0C32.7661 3.09694 32.358 5.04801 29.7235 7.39652C24.4337 12.109 1.96786 30.4016 0.0771904 70.0115C-1.68433 106.942 27.2491 129.715 31.0717 132.069C34.0111 133.514 37.5909 132.1 39.337 130.773C53.2845 121.209 72.341 95.7109 66.1989 59.6935" fill="#183550"/>
<path d="M34.1868 112.403C33.4585 121.544 32.9367 126.856 31.0874 132.079C31.0874 132.079 32.3013 140.782 33.1537 150H36.1705C36.8901 143.509 37.9888 137.065 39.4611 130.701C35.5558 128.781 34.3366 120.424 34.1868 112.403Z" fill="#183550"/>
<path d="M39.4558 130.706C35.5092 128.884 34.3675 120.352 34.1919 112.404C35.1679 99.2914 35.4524 86.137 35.0443 72.995C34.8376 66.0991 35.1424 9.12576 33.3447 0.784668C34.5744 3.60971 35.9913 6.3497 37.5858 8.9864C41.7907 15.5519 58.2798 24.8324 66.1835 59.6936C72.341 95.6491 53.3879 121.08 39.4558 130.706Z" fill="white" fill-opacity="0.8"/>
</g>
<defs>
<clipPath id="clip0_202_55">
<rect width="68" height="150" fill="white"/>
</clipPath>
</defs>
</svg>
