<svg width="154" height="154" viewBox="0 0 154 154" fill="none" xmlns="http://www.w3.org/2000/svg">
<path d="M117.623 114.159C118.7 105.513 118.377 104.245 125.055 105.645L126.75 105.789C131.885 106.014 138.602 104.992 142.548 103.224C151.043 99.4231 156.081 93.0764 147.704 94.744C128.597 98.5453 127.284 92.306 127.284 92.306C147.46 63.4363 155.894 26.789 148.614 17.8185C128.757 -6.64975 94.3861 4.92075 93.811 5.22115L93.6279 5.25376C89.8526 4.49834 85.6276 4.047 80.8814 3.97299C72.2349 3.83598 65.674 6.15902 60.6971 9.79946C60.6971 9.79946 -0.618792 -14.5622 2.23374 40.4368C2.84041 52.1366 19.6236 128.968 39.6407 105.761C46.9568 97.2752 54.0272 90.1002 54.0272 90.1002C57.538 92.3496 61.7414 93.497 66.1499 93.0848L66.4907 92.8046C66.384 93.8582 66.4311 94.8888 66.6271 96.1087C61.4713 101.665 62.9863 102.641 52.6767 104.687C42.2463 106.76 48.3742 110.451 52.3739 111.416C57.2243 112.586 68.4448 114.243 76.0284 104.007L75.7264 105.175C77.7492 106.736 77.6125 116.392 77.8993 123.292C78.1865 130.192 78.6655 136.63 80.1239 140.426C81.5823 144.222 83.3031 154 96.8523 151.199C108.176 148.859 116.834 145.491 117.623 114.159Z" fill="white" fill-opacity="0.8"/>
<path d="M147.706 94.7429C128.597 98.5442 127.284 92.3048 127.284 92.3048C147.46 63.4333 155.894 26.7853 148.615 17.8159C128.759 -6.65094 94.3865 4.9203 93.8129 5.22071L93.6282 5.25258C89.853 4.49679 85.6279 4.04655 80.8794 3.97181C72.2329 3.83516 65.6743 6.15783 60.6975 9.79754C60.6975 9.79754 -0.619553 -14.563 2.23222 40.4356C2.83889 52.1361 19.6216 128.967 39.6395 105.761C46.956 97.2747 54.0252 90.0997 54.0252 90.0997C57.5365 92.3491 61.7399 93.4966 66.1465 93.0844L66.4887 92.8042C66.3824 93.8578 66.431 94.8883 66.6259 96.1083C61.469 101.665 62.9843 102.64 52.6755 104.687C42.2443 106.76 48.3722 110.451 52.3731 111.416C57.2234 112.585 68.4448 114.242 76.0268 104.006L75.7244 105.174C77.745 106.735 79.1639 115.326 78.9261 123.114C78.6883 130.903 78.5295 136.249 80.1216 140.426C81.7136 144.602 83.3004 153.999 96.8523 151.199C108.176 148.859 114.044 142.794 114.86 132.678C115.44 125.486 116.751 126.549 116.834 120.119L117.885 117.075C119.098 107.326 118.078 104.181 125.054 105.644L126.75 105.788C131.884 106.013 138.605 104.991 142.549 103.223C151.043 99.4219 156.08 93.0753 147.705 94.7429H147.706Z" fill="#183550"/>
<path d="M127.842 92.3787C127.901 92.5053 128.004 92.6902 128.178 92.9074C128.541 93.36 129.229 93.9718 130.515 94.485C133.1 95.5171 138.092 96.1455 147.608 94.2527L147.607 94.2525C148.675 94.0399 149.554 93.9498 150.253 93.9729C150.941 93.9956 151.517 94.1294 151.923 94.4266C152.366 94.7518 152.542 95.2259 152.491 95.7404C152.444 96.2189 152.204 96.722 151.865 97.2154C151.181 98.2103 149.964 99.3474 148.408 100.466C146.843 101.59 144.906 102.716 142.754 103.679L127.842 92.3787ZM127.842 92.3787C137.887 77.9447 145.012 61.6036 148.728 47.7264C150.596 40.7543 151.607 34.3879 151.69 29.1867C151.773 24.0143 150.94 19.8872 149.003 17.5008C138.948 5.11106 125.222 1.8596 113.989 1.73062C108.371 1.66611 103.364 2.38157 99.7246 3.13162C97.9045 3.50676 96.4247 3.89097 95.3797 4.19163C94.8573 4.34194 94.4427 4.47161 94.1478 4.56914C94.0005 4.61784 93.8817 4.65897 93.7935 4.69102C93.7536 4.70551 93.7097 4.72175 93.6692 4.73811L93.6348 4.74405C89.85 3.99269 85.6244 3.54643 80.8873 3.47187C72.2676 3.33564 65.6677 5.61735 60.6242 9.23329C60.5119 9.19059 60.3639 9.135 60.1823 9.06814C59.7296 8.90157 59.0676 8.66507 58.2269 8.38402C56.5459 7.82199 54.1492 7.08137 51.2824 6.36546C45.5544 4.93499 37.925 3.5968 30.3693 3.99278C22.8159 4.38863 15.2762 6.52166 9.80742 12.0957C4.331 17.6775 1.01536 26.6234 1.73289 40.4615C1.88702 43.4341 3.05886 50.4668 5.031 58.9553C7.0057 67.4549 9.79197 77.4538 13.1895 86.3663C16.5782 95.2561 20.6045 103.147 25.0929 107.354C27.345 109.465 29.7694 110.701 32.3302 110.596C34.8943 110.491 37.4645 109.048 40.0181 106.088L40.0182 106.087C43.6704 101.851 47.2617 97.9416 49.9405 95.0903C51.2797 93.6649 52.3904 92.5045 53.1661 91.7006C53.554 91.2987 53.8581 90.9859 54.0651 90.7738C54.0773 90.7612 54.0892 90.749 54.1008 90.7371C57.5606 92.8577 61.6499 93.9491 65.9374 93.6045C65.9182 94.3527 65.9725 95.1115 66.0952 95.946C65.0785 97.0524 64.3237 97.9768 63.6891 98.7538C63.5666 98.9038 63.4486 99.0482 63.3341 99.1875C62.591 100.091 62.0059 100.758 61.2781 101.317C59.8277 102.432 57.7401 103.172 52.5781 104.197L52.5781 104.197C49.9561 104.718 48.2837 105.355 47.3559 106.084C46.8836 106.456 46.5687 106.879 46.4546 107.356C46.3389 107.84 46.4479 108.303 46.6759 108.711C47.1138 109.494 48.0393 110.167 49.0322 110.691C50.0459 111.226 51.2185 111.652 52.2559 111.902L52.256 111.902C56.9318 113.029 67.6891 114.658 75.4218 105.572C75.804 105.869 76.2313 106.576 76.6402 107.71C77.0405 108.82 77.3937 110.253 77.6796 111.895C78.251 115.176 78.5443 119.237 78.4264 123.099L78.4246 123.158C78.1889 130.875 78.0226 136.323 79.6544 140.604C79.8022 140.992 79.953 141.438 80.1173 141.924C80.8008 143.944 81.7184 146.658 83.6319 148.765C86.0675 151.447 90.0478 153.115 96.9535 151.689C102.679 150.505 107.08 148.369 110.155 145.203C113.236 142.031 114.943 137.868 115.359 132.718C115.632 129.325 116.068 127.808 116.46 126.44C116.478 126.377 116.496 126.313 116.514 126.25C116.932 124.789 117.286 123.414 117.333 120.206L118.358 117.238L118.375 117.189L118.381 117.137C118.573 115.599 118.71 114.21 118.831 112.988C118.901 112.276 118.966 111.621 119.033 111.026C119.218 109.377 119.417 108.185 119.769 107.349C120.105 106.553 120.562 106.12 121.291 105.925C122.075 105.716 123.22 105.77 124.951 106.133L124.981 106.14L125.012 106.142L126.708 106.286L126.718 106.287L126.728 106.288C131.917 106.515 138.72 105.487 142.753 103.679L127.842 92.3787ZM127.772 92.1945L127.772 92.1957C127.772 92.1939 127.772 92.1935 127.772 92.1945Z" stroke="white" stroke-opacity="0.8"/>
<mask id="path-4-inside-1_202_41" fill="white">
<path d="M127.15 92.0774C127.15 92.0774 128.464 98.3185 147.574 94.5147C155.946 92.8471 150.907 99.1945 142.416 102.998C135.447 106.117 119.823 106.916 119.568 102.606C118.911 91.4853 127.791 94.8638 127.15 92.0774C126.571 89.5679 122.599 87.1049 119.973 80.963C117.679 75.6021 88.5198 34.4916 128.059 40.5972C129.508 40.3081 117.747 4.3276 80.7436 3.74254C43.7489 3.15748 44.9626 47.6176 44.9626 47.6176"/>
</mask>
<path d="M127.15 92.0774L128.124 91.8532L128.124 91.8526L127.15 92.0774ZM147.574 94.5147L147.769 95.4955L147.769 95.4954L147.574 94.5147ZM142.416 102.998L142.824 103.911L142.825 103.911L142.416 102.998ZM119.568 102.606L118.57 102.665L118.57 102.665L119.568 102.606ZM119.973 80.963L120.892 80.5699L120.892 80.5696L119.973 80.963ZM128.059 40.5972L127.906 41.5855L128.255 41.5779L128.059 40.5972ZM80.7436 3.74254L80.7278 4.74242L80.7278 4.74242L80.7436 3.74254ZM43.963 47.6449C43.9781 48.197 44.4378 48.6323 44.9899 48.6172C45.542 48.6022 45.9773 48.1424 45.9622 47.5903L43.963 47.6449ZM127.15 92.0774C126.171 92.2834 126.172 92.2849 126.172 92.2864C126.172 92.287 126.172 92.2885 126.173 92.2896C126.173 92.2917 126.174 92.294 126.174 92.2963C126.175 92.301 126.176 92.3061 126.178 92.3116C126.18 92.3226 126.183 92.3351 126.187 92.3491C126.194 92.3771 126.204 92.4111 126.217 92.4505C126.242 92.5294 126.279 92.6299 126.331 92.7476C126.437 92.9835 126.607 93.286 126.874 93.619C127.413 94.2905 128.32 95.0504 129.825 95.6512C132.805 96.841 138.138 97.4126 147.769 95.4955L147.379 93.5339C137.9 95.4206 133.021 94.7735 130.566 93.7938C129.354 93.3097 128.738 92.7471 128.434 92.3673C128.279 92.1747 128.197 92.0192 128.156 91.9287C128.136 91.8831 128.125 91.8533 128.122 91.8426C128.12 91.8372 128.12 91.8366 128.121 91.8413C128.122 91.8436 128.123 91.8472 128.124 91.8522C128.125 91.8547 128.125 91.8576 128.126 91.8608C128.127 91.8624 128.127 91.864 128.127 91.8658C128.127 91.8667 128.128 91.8681 128.128 91.8685C128.128 91.8699 128.128 91.8714 127.15 92.0774ZM147.769 95.4954C148.774 95.2954 149.528 95.2259 150.071 95.2439C150.637 95.2626 150.854 95.3729 150.902 95.408C150.912 95.4153 150.891 95.4006 150.874 95.3618C150.86 95.3271 150.869 95.3191 150.865 95.3637C150.853 95.4789 150.772 95.7348 150.495 96.1381C149.951 96.9288 148.891 97.9477 147.398 99.0214C145.92 100.084 144.072 101.161 142.007 102.085L142.825 103.911C145.006 102.934 146.972 101.791 148.565 100.645C150.143 99.5113 151.412 98.3344 152.143 97.2713C152.503 96.7476 152.795 96.1621 152.855 95.5626C152.922 94.8911 152.686 94.2365 152.086 93.7957C151.561 93.4108 150.865 93.269 150.137 93.245C149.386 93.2201 148.467 93.3171 147.379 93.534L147.769 95.4954ZM142.007 102.085C138.688 103.571 133.188 104.538 128.464 104.588C126.104 104.613 124.023 104.407 122.553 103.966C121.815 103.745 121.297 103.484 120.974 103.217C120.67 102.966 120.578 102.747 120.566 102.547L118.57 102.665C118.622 103.543 119.074 104.242 119.7 104.759C120.308 105.261 121.106 105.621 121.978 105.882C123.726 106.406 126.036 106.614 128.485 106.588C133.379 106.536 139.174 105.544 142.824 103.911L142.007 102.085ZM120.566 102.547C120.409 99.8886 120.83 98.2242 121.436 97.1536C122.032 96.1007 122.864 95.5191 123.751 95.1336C124.203 94.9372 124.667 94.7933 125.129 94.664C125.561 94.543 126.065 94.4171 126.465 94.2809C126.854 94.1488 127.356 93.944 127.717 93.5504C128.156 93.0732 128.266 92.4681 128.124 91.8532L126.175 92.3016C126.194 92.3833 126.167 92.2821 126.245 92.1969C126.246 92.1953 126.165 92.2706 125.821 92.3874C125.49 92.5001 125.112 92.5918 124.59 92.738C124.097 92.8758 123.531 93.0486 122.955 93.2991C121.784 93.8073 120.56 94.6404 119.695 96.1688C118.841 97.6795 118.398 99.763 118.57 102.665L120.566 102.547ZM128.124 91.8526C127.934 91.0273 127.482 90.2717 126.962 89.5573C126.444 88.8461 125.776 88.0683 125.102 87.2477C123.73 85.5775 122.15 83.512 120.892 80.5699L119.053 81.3561C120.421 84.5559 122.14 86.7929 123.556 88.517C124.276 89.3936 124.873 90.0859 125.345 90.7343C125.815 91.3794 126.076 91.8728 126.176 92.3022L128.124 91.8526ZM120.892 80.5696C120.575 79.829 119.827 78.5314 118.906 76.9384C117.965 75.3114 116.799 73.3018 115.588 71.0602C113.159 66.5645 110.582 61.2007 109.297 56.2298C107.995 51.1963 108.106 46.9243 110.533 44.2462C112.962 41.5667 118.083 40.0686 127.906 41.5855L128.212 39.6089C118.265 38.073 112.204 39.4241 109.051 42.9031C105.897 46.3836 106.028 51.5795 107.36 56.7306C108.709 61.9441 111.381 67.4815 113.829 72.011C115.056 74.282 116.236 76.316 117.174 77.9395C118.133 79.597 118.797 80.7568 119.054 81.3564L120.892 80.5696ZM128.255 41.5779C128.905 41.4482 129.086 40.8697 129.126 40.7099C129.181 40.4891 129.181 40.2627 129.171 40.0864C129.151 39.7139 129.063 39.2413 128.929 38.7102C128.658 37.6325 128.152 36.1491 127.399 34.4028C125.89 30.9056 123.354 26.282 119.598 21.6509C112.076 12.3779 99.6275 3.04099 80.7594 2.74267L80.7278 4.74242C98.863 5.02915 110.796 13.9751 118.044 22.9108C121.672 27.3841 124.118 31.8464 125.563 35.1952C126.286 36.8718 126.751 38.2514 126.99 39.199C127.111 39.6805 127.164 40.0111 127.174 40.1977C127.18 40.3011 127.169 40.2932 127.185 40.2255C127.187 40.2189 127.304 39.7282 127.863 39.6165L128.255 41.5779ZM80.7594 2.74267C71.2935 2.59297 64.202 5.33 58.9196 9.57145C53.6541 13.7993 50.2508 19.4692 48.0489 25.0963C45.8465 30.7243 44.8275 36.3557 44.3572 40.5689C44.1217 42.6784 44.023 44.4394 43.9832 45.6762C43.9633 46.2948 43.9582 46.7827 43.958 47.118C43.9579 47.2857 43.9591 47.4152 43.9604 47.504C43.961 47.5483 43.9616 47.5825 43.9621 47.6061C43.9623 47.6179 43.9625 47.627 43.9627 47.6335C43.9628 47.6368 43.9628 47.6393 43.9629 47.6412C43.9629 47.6422 43.9629 47.6431 43.9629 47.6436C43.963 47.6443 43.963 47.6449 44.9626 47.6176C45.9622 47.5903 45.9622 47.5905 45.9622 47.5906C45.9622 47.5904 45.9622 47.5903 45.9622 47.5899C45.9622 47.5891 45.9622 47.5876 45.9621 47.5855C45.962 47.5812 45.9619 47.5743 45.9617 47.5647C45.9613 47.5456 45.9607 47.5159 45.9602 47.4762C45.9591 47.3967 45.9579 47.2767 45.958 47.1189C45.9581 46.8032 45.963 46.3365 45.9822 45.7405C46.0205 44.5482 46.1161 42.8403 46.3448 40.7908C46.803 36.6861 47.7928 31.2389 49.9113 25.8251C52.0303 20.4103 55.2601 15.0748 60.1718 11.1309C65.0666 7.20067 71.6963 4.59959 80.7278 4.74242L80.7594 2.74267Z" fill="white" fill-opacity="0.8" mask="url(#path-4-inside-1_202_41)"/>
<path d="M66.4911 95.8802C61.3334 101.436 62.8503 102.412 52.5407 104.459C42.1095 106.533 48.2382 110.223 52.2379 111.187C57.0882 112.358 68.3096 114.015 75.8916 103.776C78.2005 100.659 75.8779 95.6849 72.7063 94.4169C71.1739 93.8048 69.1248 93.0376 66.4911 95.8802Z" stroke="white" stroke-opacity="0.8" stroke-linecap="round" stroke-linejoin="round"/>
<path d="M66.1532 95.7832C65.6335 92.5164 67.2662 88.6291 69.016 84.0812C71.6455 77.2575 77.7126 70.4327 72.8592 48.7872C69.2416 32.6571 44.9775 45.4303 44.9623 47.6174C44.9474 49.8038 46.0597 58.7032 44.5569 69.0666C42.596 82.5898 53.4796 94.0269 66.0122 92.8568" stroke="white" stroke-opacity="0.8" stroke-linecap="round" stroke-linejoin="round"/>
<path d="M60.38 47.2896C60.2706 48.0366 61.7981 50.0299 63.7898 50.2962C65.7781 50.5637 67.48 49.006 67.5879 48.2597C67.6958 47.5127 66.1702 46.6899 64.1777 46.4224C62.1882 46.1546 60.4856 46.5444 60.3804 47.2896H60.38Z" fill="white" fill-opacity="0.8" stroke="white" stroke-opacity="0.8"/>
<path d="M120.942 45.767C121.05 46.514 119.524 48.5073 117.532 48.7736C115.542 49.0411 113.84 47.4833 113.731 46.7371C113.626 45.9901 115.152 45.1673 117.142 44.8998C119.132 44.6324 120.834 45.0218 120.942 45.7674V45.767Z" fill="white" fill-opacity="0.8" stroke="white" stroke-opacity="0.8"/>
<path d="M128.059 40.5972C128.387 46.4566 126.75 50.4476 126.544 56.6852C126.239 65.7516 131.026 76.1289 123.812 86.519" stroke="white" stroke-opacity="0.8" stroke-linecap="round" stroke-linejoin="round"/>
</svg>
