<svg width="154" height="154" viewBox="0 0 154 154" fill="none" xmlns="http://www.w3.org/2000/svg">
<path d="M117.623 114.159C118.7 105.513 118.377 104.245 125.055 105.645L126.75 105.789C131.885 106.014 138.602 104.992 142.548 103.224C151.043 99.4231 156.081 93.0764 147.704 94.744C128.597 98.5453 127.284 92.306 127.284 92.306C147.46 63.4363 155.894 26.789 148.614 17.8185C128.757 -6.64975 94.3863 4.92075 93.8112 5.22115L93.6281 5.25376C89.8528 4.49834 85.6278 4.047 80.8816 3.97299C72.2351 3.83598 65.6742 6.15902 60.6973 9.79946C60.6973 9.79946 -0.618548 -14.5622 2.23398 40.4368C2.84065 52.1366 19.6238 128.968 39.6409 105.761C46.957 97.2752 54.0274 90.1002 54.0274 90.1002C57.5382 92.3496 61.7416 93.497 66.1501 93.0848L66.4909 92.8046C66.3842 93.8582 66.4313 94.8888 66.6273 96.1087C61.4715 101.665 62.9865 102.641 52.6769 104.687C42.2465 106.76 48.3744 110.451 52.3741 111.416C57.2245 112.586 68.445 114.243 76.0286 104.007L75.7266 105.175C77.7494 106.736 77.6127 116.392 77.8995 123.292C78.1867 130.192 78.6657 136.63 80.1241 140.426C81.5825 144.222 83.3033 154 96.8525 151.199C108.176 148.859 116.834 145.491 117.623 114.159" fill="#252F3E"/>
<path d="M147.706 94.7429C128.597 98.5442 127.284 92.3048 127.284 92.3048C147.46 63.4333 155.894 26.7853 148.615 17.8159C128.759 -6.65094 94.3864 4.9203 93.8128 5.22071L93.6281 5.25258C89.8529 4.49679 85.6278 4.04655 80.8793 3.97181C72.2328 3.83516 65.6742 6.15783 60.6974 9.79754C60.6974 9.79754 -0.619672 -14.563 2.2321 40.4356C2.83877 52.1361 19.6215 128.967 39.6394 105.761C46.9559 97.2747 54.0251 90.0997 54.0251 90.0997C57.5364 92.3491 61.7398 93.4966 66.1464 93.0844L66.4886 92.8042C66.3823 93.8578 66.4309 94.8883 66.6258 96.1083C61.4689 101.665 62.9842 102.64 52.6754 104.687C42.2442 106.76 48.3721 110.451 52.373 111.416C57.2233 112.585 68.4447 114.242 76.0267 104.006L75.7243 105.174C77.7449 106.735 79.1638 115.326 78.926 123.114C78.6882 130.903 78.5294 136.249 80.1215 140.426C81.7135 144.602 83.3003 153.999 96.8522 151.199C108.176 148.859 114.044 142.794 114.86 132.678C115.44 125.486 116.751 126.549 116.834 120.119L117.885 117.075C119.098 107.326 118.078 104.181 125.054 105.644L126.75 105.788C131.884 106.013 138.605 104.991 142.549 103.223C151.043 99.4219 156.08 93.0753 147.705 94.7429H147.706Z" fill="#68B8D7"/>
<path d="M76.8472 100.332C76.3211 118.472 76.9794 136.739 78.82 141.178C80.6616 145.618 84.6029 154.253 98.1559 151.453C109.479 149.112 113.598 144.581 115.386 134.582C116.703 127.225 119.241 106.793 119.567 102.606" stroke="#252F3E" stroke-width="4" stroke-linecap="round" stroke-linejoin="round"/>
<path d="M60.6028 9.39288C60.6028 9.39288 -0.756065 -14.7922 2.09646 40.2064C2.70313 51.9069 19.4871 128.74 39.5045 105.533C46.8195 97.0459 53.4351 90.3897 53.4351 90.3897" stroke="#252F3E" stroke-width="4" stroke-linecap="round" stroke-linejoin="round"/>
<path d="M93.7455 4.97869C91.6215 5.6209 127.877 -7.80297 148.481 17.5874C155.76 26.5572 147.325 63.2052 127.15 92.0774" stroke="#252F3E" stroke-width="4" stroke-linecap="round" stroke-linejoin="round"/>
<path d="M127.15 92.0774C127.15 92.0774 128.464 98.3185 147.574 94.5147C155.946 92.8471 150.907 99.1945 142.416 102.998C135.447 106.117 119.823 106.916 119.568 102.606C118.911 91.4853 127.791 94.8638 127.15 92.0774C126.571 89.5679 122.599 87.1049 119.973 80.963C117.679 75.6021 88.5199 34.4916 128.059 40.5972C129.508 40.3081 117.747 4.3276 80.7437 3.74254C43.749 3.15748 44.9627 47.6176 44.9627 47.6176" stroke="#252F3E" stroke-width="4" stroke-linecap="round" stroke-linejoin="bevel"/>
<path d="M66.491 95.8802C61.3333 101.436 62.8502 102.412 52.5406 104.459C42.1094 106.533 48.2381 110.223 52.2378 111.187C57.0881 112.358 68.3095 114.015 75.8915 103.776C78.2004 100.659 75.8778 95.6849 72.7062 94.4169C71.1738 93.8048 69.1247 93.0376 66.491 95.8802V95.8802Z" stroke="#252F3E" stroke-width="4" stroke-linecap="round" stroke-linejoin="round"/>
<path d="M66.1532 95.7832C65.6335 92.5164 67.2662 88.6291 69.016 84.0812C71.6455 77.2575 77.7126 70.4327 72.8592 48.7872C69.2416 32.6571 44.9775 45.4303 44.9623 47.6174C44.9474 49.8038 46.0597 58.7032 44.5569 69.0666C42.596 82.5898 53.4796 94.0269 66.0122 92.8568" stroke="#252F3E" stroke-width="4" stroke-linecap="round" stroke-linejoin="round"/>
<path d="M60.3798 47.2896C60.2704 48.0366 61.7979 50.0299 63.7896 50.2962C65.7779 50.5637 67.4798 49.006 67.5877 48.2597C67.6956 47.5127 66.17 46.6899 64.1775 46.4224C62.188 46.1546 60.4854 46.5444 60.3802 47.2896H60.3798Z" fill="#252F3E" stroke="#252F3E" stroke-width="2"/>
<path d="M120.942 45.767C121.05 46.514 119.524 48.5073 117.532 48.7736C115.542 49.0411 113.84 47.4833 113.731 46.7371C113.626 45.9901 115.152 45.1673 117.142 44.8998C119.132 44.6324 120.834 45.0218 120.942 45.7674V45.767Z" fill="#252F3E" stroke="#252F3E" stroke-width="1.5"/>
<path d="M128.059 40.5972C128.387 46.4566 126.75 50.4476 126.544 56.6852C126.239 65.7516 131.026 76.1289 123.812 86.519" stroke="#252F3E" stroke-width="4" stroke-linecap="round" stroke-linejoin="round"/>
</svg>
