<svg width="150" height="150" viewBox="0 0 150 150" fill="none" xmlns="http://www.w3.org/2000/svg">
<g clip-path="url(#clip0_202_66)">
<path d="M75 0C61.7655 0 52.7853 3.15897 47.0788 7.74457C41.3723 12.3302 39.1304 18.2278 39.1304 23.1318V39.1304H71.7391V42.3913H23.1318C17.1705 42.3913 11.1201 44.9771 6.82745 50.4416C2.53482 55.9061 0 64.0583 0 75C0 85.9417 2.53482 94.0939 6.82745 99.5584C11.1201 105.023 17.1705 107.609 23.1318 107.609H39.1304V126.868C39.1304 131.772 41.3723 137.67 47.0788 142.255C52.7853 146.841 61.7655 150 75 150C88.2345 150 97.2147 146.841 102.921 142.255C108.628 137.67 110.87 131.772 110.87 126.868V110.87H78.2609V107.609H126.868C132.829 107.609 138.88 105.023 143.173 99.5584C147.465 94.0939 150 85.9417 150 75C150 64.0583 147.465 55.9061 143.173 50.4416C138.88 44.9771 132.829 42.3913 126.868 42.3913H110.87V23.1318C110.87 18.1004 108.64 12.19 102.921 7.64266C97.2019 3.09528 88.2218 0 75 0ZM75 6.52174C87.2155 6.52174 94.6162 9.375 98.8451 12.7378C103.074 16.1005 104.348 20.011 104.348 23.1318V61.9565C104.348 67.3573 99.966 71.7391 94.5652 71.7391H55.4348C48.722 71.7391 42.939 75.8789 40.4552 81.7255C40.0348 82.6936 39.6527 83.7254 39.4361 84.7826C39.2196 85.8398 39.1304 86.9226 39.1304 88.0435V101.087H23.1318C18.992 101.087 15.1579 99.4693 12.0245 95.4823C8.89097 91.4954 6.52174 84.9227 6.52174 75C6.52174 65.0773 8.89097 58.5046 12.0245 54.5177C15.1579 50.5307 18.992 48.913 23.1318 48.913H78.2609V32.6087H45.6522V23.1318C45.6522 20.2148 46.9132 16.2407 51.1549 12.8397C55.3966 9.43869 62.7972 6.52174 75 6.52174ZM58.6957 16.3043C55.1036 16.3043 52.1739 19.234 52.1739 22.8261C52.1739 26.4181 55.1036 29.3478 58.6957 29.3478C62.2877 29.3478 65.2174 26.4181 65.2174 22.8261C65.2174 19.234 62.2877 16.3043 58.6957 16.3043ZM110.87 48.913H126.868C131.008 48.913 134.842 50.5307 137.976 54.5177C141.109 58.5046 143.478 65.0773 143.478 75C143.478 84.9227 141.109 91.4954 137.976 95.4823C134.842 99.4693 131.008 101.087 126.868 101.087H71.7391V117.391H104.348V126.868C104.348 129.785 103.087 133.759 98.8451 137.16C94.6034 140.561 87.2028 143.478 75 143.478C62.7972 143.478 55.3966 140.561 51.1549 137.16C46.9132 133.759 45.6522 129.785 45.6522 126.868V88.0435C45.6522 87.3684 45.7286 86.7442 45.856 86.1073C46.7731 81.6491 50.7091 78.2609 55.4348 78.2609H94.5652C103.52 78.2609 110.87 70.9112 110.87 61.9565V48.913ZM91.3043 120.652C87.7123 120.652 84.7826 123.582 84.7826 127.174C84.7826 130.766 87.7123 133.696 91.3043 133.696C94.8964 133.696 97.8261 130.766 97.8261 127.174C97.8261 123.582 94.8964 120.652 91.3043 120.652Z" fill="#183550"/>
</g>
<defs>
<clipPath id="clip0_202_66">
<rect width="150" height="150" fill="white"/>
</clipPath>
</defs>
</svg>
