<svg width="150" height="150" viewBox="0 0 150 150" fill="none" xmlns="http://www.w3.org/2000/svg">
<path d="M88.3444 74.8557C88.3444 82.2501 82.35 88.2446 74.9555 88.2446C67.5611 88.2446 61.5667 82.2501 61.5667 74.8557C61.5667 67.4612 67.5611 61.4668 74.9555 61.4668C82.35 61.4668 88.3444 67.4612 88.3444 74.8557Z" fill="#68B8D7"/>
<path d="M74.95 105.522C73.8333 105.55 72.5167 105.567 71.1944 105.567C55.5778 105.567 40.5167 103.206 26.3444 98.8224L27.4167 99.1057C19.9111 96.6835 13.4056 93.1113 7.74444 88.5335L7.86111 88.6224C3.47777 85.4501 0.527772 80.539 0.0277724 74.9168L0.0222168 74.8446C0.0222168 65.989 9.72777 57.3224 26.0278 51.6668C39.9833 47.0724 56.0444 44.4224 72.7222 44.4224C73.4944 44.4224 74.2667 44.4279 75.0389 44.439H74.9222C75.5667 44.4279 76.3222 44.4224 77.0833 44.4224C93.5555 44.4224 109.417 47.0279 124.283 51.8501L123.2 51.5446C130.45 53.9001 136.744 57.3001 142.272 61.6224L142.139 61.5224C146.444 64.5557 149.35 69.3224 149.839 74.7835L149.844 74.8557C149.844 84.0557 138.989 93.3668 121.494 99.1557C108.367 103.206 93.2722 105.539 77.6333 105.539C76.6889 105.539 75.75 105.528 74.8111 105.511H74.95V105.522ZM74.95 50.8557C74.3611 50.8446 73.6611 50.8446 72.9611 50.8446C56.9556 50.8446 41.5389 53.3557 27.0778 58.0057L28.1389 57.7113C13.15 62.939 6.42777 70.089 6.42777 74.8613C6.42777 79.8224 13.6555 87.639 29.5 93.0501C41.9944 96.9224 56.3555 99.1557 71.2389 99.1557C72.5444 99.1557 73.8444 99.139 75.1389 99.1057L74.95 99.1113C75.7611 99.1279 76.7167 99.139 77.6722 99.139C92.5833 99.139 106.972 96.9168 120.533 92.789L119.494 93.0613C135.939 87.5946 143.494 79.7779 143.494 74.839C142.928 71.2946 140.928 68.3057 138.128 66.4224L138.083 66.3946C133.272 62.6501 127.661 59.6335 121.583 57.6501L121.194 57.539C108.039 53.2835 92.9 50.8279 77.1944 50.8279C76.4056 50.8279 75.6222 50.8335 74.8389 50.8446H74.9555L74.95 50.8557Z" fill="#68B8D7"/>
<path d="M44.5722 141.589C44.4833 141.589 44.3778 141.595 44.2778 141.595C41.7611 141.595 39.4 140.933 37.3611 139.778L37.4333 139.817C29.7778 135.372 27.1111 122.639 30.3222 105.7C34.1945 88.3223 40.4722 72.9557 48.9 59.0334L48.5167 59.7223C56.8445 44.9723 66.9056 32.3557 78.6556 21.5446L78.7667 21.4446C83.8945 16.7557 89.8944 12.9057 96.4722 10.1779L96.8778 10.0279C99.1389 8.939 101.794 8.30566 104.6 8.30566C107.383 8.30566 110.022 8.93344 112.378 10.0501L112.267 10.0057C120.239 14.5946 122.883 28.6723 119.144 46.7057C115.144 63.189 109.044 77.7057 101.022 90.9223L101.411 90.239C93.3444 104.85 83.5833 117.361 72.1556 128.122L72.0778 128.195C66.7556 133.067 60.5056 137.028 53.6278 139.761L53.2167 139.906C50.6611 140.911 47.7056 141.528 44.6111 141.6H44.5778L44.5722 141.589ZM51.2667 61.3279L54.0389 62.9279C46.3667 75.5946 40.3445 90.2945 36.7833 105.928L36.5945 106.928C33.6333 122.533 36.4889 131.917 40.5945 134.295C41.6556 134.861 42.9111 135.189 44.2445 135.189C44.3556 135.189 44.4722 135.189 44.5833 135.183H44.5667C49.8722 135.183 58.2222 131.822 67.8778 123.395C78.8556 113.022 88.1778 101.045 95.5 87.8168L95.8778 87.0668C103.2 75.089 109.05 61.2168 112.683 46.4723L112.894 45.4612C116.389 28.4723 113.372 18.0723 109.083 15.5834C107.761 15.0612 106.228 14.7612 104.628 14.7612C102.606 14.7612 100.694 15.2446 99.0056 16.0946L99.0778 16.0612C92.8667 18.6446 87.5333 22.0946 82.9278 26.3168L82.9667 26.2834C71.6278 36.7334 62.0111 48.8223 54.4333 62.2168L54.05 62.9501L51.2667 61.3279Z" fill="#68B8D7"/>
<path d="M105.333 141.667C98.0778 141.667 88.8889 137.294 79.2778 129.022C67.1944 118.006 56.9611 105.233 48.9222 91.0555L48.5222 90.2944C40.5778 77.2444 34.35 62.1 30.6611 45.9889L30.4611 44.9611C29.5611 41.0222 29.0444 36.5055 29.0444 31.8666C29.0444 28.9389 29.25 26.0666 29.6444 23.25L29.6055 23.5722C30.0778 18.0278 32.9833 13.25 37.2278 10.2444L37.2833 10.2055C45.2278 5.59442 58.7555 10.3389 72.5167 22.5833C83.75 33.2166 93.3389 45.4333 100.95 58.9166L101.35 59.6833C109.283 72.4444 115.556 87.2444 119.361 103.006L119.572 104.039C120.478 107.978 121 112.506 121 117.15C121 120.356 120.756 123.5 120.278 126.572L120.322 126.228C119.75 131.906 116.744 136.789 112.383 139.872L112.322 139.911C110.389 141.017 108.078 141.667 105.617 141.667C105.517 141.667 105.417 141.667 105.317 141.661H105.333V141.667ZM54.0667 87.0944C62.1667 101.378 71.9389 113.6 83.35 124.072L83.4611 124.172C95.4944 134.522 105.039 136.761 109.172 134.361C113.467 131.883 116.611 121.717 113.361 105.289C109.461 89.2333 103.433 75.1 95.4778 62.2833L95.8389 62.9055C88.1778 49.2611 79.0222 37.5611 68.35 27.4389L68.2833 27.3778C55.3167 15.8555 44.8111 13.2666 40.5167 15.7444C37.8889 17.8833 36.1611 21.0333 35.9333 24.5944V24.6333C35.6278 26.8 35.4555 29.3 35.4555 31.8444C35.4555 36.05 35.9333 40.1389 36.8333 44.0722L36.7611 43.7055C40.5 60.1055 46.4667 74.5889 54.4389 87.7278L54.0722 87.0778L54.0667 87.0944Z" fill="#68B8D7"/>
</svg>
