<svg width="150" height="150" viewBox="0 0 150 150" fill="none" xmlns="http://www.w3.org/2000/svg">
<path d="M73.4251 33.9749C49.2001 34.7448 42.0001 52.0499 40.3501 61.4249C42.5 57.9498 49.2751 50.325 59.2501 50.325C70.8751 50.325 79.7251 63.3 85.1251 67.35C91.6856 72.2705 104.868 78.7673 122.175 73.5C135.975 69.3 142.375 54.6498 143.775 47.6999C137.1 56.7749 126.975 62.2257 114.45 55.7999C105.825 51.3749 99.3751 33.15 73.4251 33.9749Z" fill="#183550"/>
<path d="M39.1502 75.1497C14.9252 75.9196 7.7252 93.2247 6.0752 102.6C8.2252 99.1246 15.0002 91.4998 24.9752 91.4998C36.6002 91.4998 45.4502 104.475 50.8502 108.525C57.4108 113.445 70.5937 119.942 87.9002 114.675C101.7 110.475 108.1 95.8246 109.5 88.8747C102.825 97.9497 92.7002 103.401 80.1752 96.9747C71.5502 92.5497 65.1002 74.3248 39.1502 75.1497Z" fill="#183550"/>
</svg>
