<svg width="150" height="150" viewBox="0 0 150 150" fill="none" xmlns="http://www.w3.org/2000/svg">
<path d="M135.352 0H14.6484C6.55833 0 0 6.55833 0 14.6484V135.352C0 143.442 6.55833 150 14.6484 150H135.352C143.442 150 150 143.442 150 135.352V14.6484C150 6.55833 143.442 0 135.352 0Z" fill="#68B8D7"/>
<path fill-rule="evenodd" clip-rule="evenodd" d="M92.8711 119.238V133.887C95.2441 135.117 98.1445 136.025 101.367 136.641C104.59 137.256 108.105 137.549 111.621 137.549C115.137 137.549 118.359 137.227 121.582 136.553C124.805 135.879 127.441 134.766 129.785 133.33C132.158 131.777 134.18 129.814 135.352 127.178C136.523 124.541 137.432 121.611 137.432 117.803C137.432 115.137 137.021 112.822 136.23 110.771C135.439 108.721 134.297 106.963 132.715 105.498C131.221 103.945 129.492 102.568 127.441 101.396C125.391 100.225 123.047 98.9941 120.41 97.8809C118.477 97.0898 116.895 96.3281 115.137 95.5664C113.613 94.8047 112.295 94.043 111.328 93.2812C110.244 92.4902 109.424 91.6699 108.838 90.8203C108.252 89.9414 107.959 88.9746 107.959 87.8906C107.959 86.8945 108.22 85.9863 108.75 85.166C109.28 84.3457 110.01 83.6719 110.947 83.0859C111.885 82.5 113.057 82.0605 114.463 81.7383C115.84 81.416 117.363 81.2695 119.15 81.2695C120.381 81.2695 121.67 81.3603 122.959 81.5449C124.307 81.7295 125.684 82.0137 127.061 82.3945C128.438 82.7754 129.785 83.2441 131.162 83.8301C132.451 84.416 133.652 85.0898 134.678 85.8516V72.082C132.451 71.2324 129.99 70.5879 127.354 70.1777C124.717 69.7676 121.787 69.5625 118.271 69.5625C114.756 69.5625 111.533 69.9434 108.311 70.6758C105.088 71.4082 102.451 72.5801 100.107 74.1914C97.7344 75.7734 96.0059 77.707 94.541 80.3437C93.1641 82.8047 92.4902 85.6172 92.4902 89.1328C92.4902 93.5273 93.75 97.3359 96.2988 100.266C98.8184 103.488 102.744 105.832 107.725 108.176C109.746 108.996 111.533 109.816 113.291 110.607C115.049 111.398 116.514 112.219 117.686 113.068C118.945 113.918 119.941 114.855 120.615 115.852C121.348 116.848 121.729 118.02 121.729 119.367C121.729 120.305 121.5 121.184 121.055 122.004C120.609 122.824 119.912 123.527 118.975 124.113C118.037 124.699 116.895 125.168 115.459 125.52C114.082 125.842 112.529 126.018 110.479 126.018C107.256 126.018 104.033 125.461 101.104 124.348C97.8809 123.234 94.9512 121.564 92.3145 119.367L92.8711 119.238ZM68.2617 83.2031H87.0117V71.1914H34.5703V83.2031H53.3203V136.816H68.2617V83.2031Z" fill="#252F3E"/>
</svg>
