<svg width="150" height="150" viewBox="0 0 150 150" fill="none" xmlns="http://www.w3.org/2000/svg">
<path d="M75 142.5C112.279 142.5 142.5 112.279 142.5 75C142.5 37.7208 112.279 7.5 75 7.5C37.7208 7.5 7.5 37.7208 7.5 75C7.5 112.279 37.7208 142.5 75 142.5Z" fill="#183550"/>
<path d="M75.0002 107.737C93.0806 107.737 107.738 93.0804 107.738 75C107.738 56.9195 93.0806 42.2625 75.0002 42.2625C56.9198 42.2625 42.2627 56.9195 42.2627 75C42.2627 93.0804 56.9198 107.737 75.0002 107.737Z" stroke="white" stroke-opacity="0.8" stroke-width="8.55"/>
<path d="M29.0998 87.6563C36.0897 87.6563 41.7562 81.9898 41.7562 74.9999C41.7562 68.01 36.0897 62.3435 29.0998 62.3435C22.1098 62.3435 16.4434 68.01 16.4434 74.9999C16.4434 81.9898 22.1098 87.6563 29.0998 87.6563Z" fill="#183550"/>
<path d="M100.5 75H115.5Z" fill="#183550"/>
<path d="M100.5 75H115.5" stroke="#183550" stroke-width="3.2378"/>
<path d="M29.0996 84.0111C34.0763 84.0111 38.1107 79.9767 38.1107 74.9999C38.1107 70.0232 34.0763 65.9888 29.0996 65.9888C24.1228 65.9888 20.0884 70.0232 20.0884 74.9999C20.0884 79.9767 24.1228 84.0111 29.0996 84.0111Z" fill="white" fill-opacity="0.8"/>
<path d="M86.989 28.9213C83.4941 34.9748 85.5681 42.7153 91.6216 46.2103C97.6751 49.7052 105.416 47.6312 108.911 41.5777C112.406 35.5242 110.331 27.7837 104.278 24.2887C98.2245 20.7938 90.484 22.8678 86.989 28.9213Z" fill="#183550"/>
<path d="M62.25 97.0837L54.75 110.074Z" fill="#183550"/>
<path d="M62.25 97.0837L54.75 110.074" stroke="#183550" stroke-width="3.2378"/>
<path d="M90.1459 30.7439C87.6575 35.0539 89.1342 40.565 93.4442 43.0534C97.7542 45.5418 103.265 44.0651 105.754 39.7551C108.242 35.4451 106.765 29.934 102.455 27.4456C98.1454 24.9572 92.6342 26.4339 90.1459 30.7439Z" fill="white" fill-opacity="0.8"/>
<path d="M108.911 108.422C105.416 102.369 97.6752 100.295 91.6217 103.79C85.5683 107.285 83.4942 115.025 86.9892 121.079C90.4842 127.132 98.2247 129.206 104.278 125.711C110.332 122.216 112.406 114.476 108.911 108.422Z" fill="#183550"/>
<path d="M62.25 52.9165L54.75 39.9261Z" fill="#183550"/>
<path d="M62.25 52.9165L54.75 39.9261" stroke="#183550" stroke-width="3.2378"/>
<path d="M105.754 110.245C103.266 105.935 97.7546 104.458 93.4446 106.947C89.1346 109.435 87.6579 114.946 90.1463 119.256C92.6346 123.566 98.1458 125.043 102.456 122.554C106.766 120.066 108.242 114.555 105.754 110.245Z" fill="white" fill-opacity="0.8"/>
</svg>
